<?xml version="1.0" encoding="UTF-8"?>
<svg xmlns="http://www.w3.org/2000/svg" viewBox="0 0 160 160">
  <circle cx="80" cy="80" r="80" fill="#fff"/>
  <rect x="38" y="44" width="84" height="76" rx="8" fill="#18BCF2"/>
  <rect x="38" y="44" width="84" height="22" rx="8" fill="#0E8AB8"/>
  <rect x="48" y="76" width="16" height="12" rx="2" fill="#fff"/>
  <rect x="72" y="76" width="16" height="12" rx="2" fill="#fff"/>
  <rect x="96" y="76" width="16" height="12" rx="2" fill="#fff"/>
  <rect x="48" y="96" width="16" height="12" rx="2" fill="#fff"/>
  <rect x="72" y="96" width="16" height="12" rx="2" fill="#fff"/>
  <circle cx="120" cy="44" r="18" fill="#0E8AB8" stroke="#fff" stroke-width="3"/>
  <g transform="translate(120, 44) scale(0.18) translate(-97.5, -102)">
    <path d="M25 97.8528L92.8823 29.9706C102.255 20.598 117.451 20.598 126.823 29.9706V29.9706C136.196 39.3431 136.196 54.5391 126.823 63.9117L75.5581 115.177" stroke="#fff" stroke-width="14" stroke-linecap="round" fill="none"/>
    <path d="M76.2653 114.47L126.823 63.9117C136.196 54.5391 151.392 54.5391 160.765 63.9117L161.118 64.2652C170.491 73.6378 170.491 88.8338 161.118 98.2063L99.7248 159.6C96.6006 162.724 96.6006 167.789 99.7248 170.913L112.331 183.52" stroke="#fff" stroke-width="14" stroke-linecap="round" fill="none"/>
    <path d="M109.853 46.9411L59.6482 97.1457C50.2757 106.518 50.2757 121.714 59.6482 131.087V131.087C69.0208 140.459 84.2168 140.459 93.5894 131.087L143.794 80.8822" stroke="#fff" stroke-width="14" stroke-linecap="round" fill="none"/>
  </g>
</svg>
